# xmcd
#
# Track frame offsets:
#	150
#	10268
#	18966
#	28542
#	35621
#	50045
#	59836
#	69142
#	75750
#	85503
#	94632
#	107918
#	120302
#	129732
#	140144
#	149837
#	161214
#	178687
#	187225
#	191418
#
# Disc length: 2704 seconds
#
# Revision: 0
# Processed by: cddbd v1.5.2PL0 Copyright (c) Steve Scherf et al.
# Submitted via: EasyCDDAExtractor 9.0.0.1
#
DISCID=190a8e14
DTITLE=Pine Hill Haints - Ghost Dance
DYEAR=2007
DGENRE=Country
TTITLE0=Spirit Of 1812
TTITLE1=For Every Glass That's Empty
TTITLE2=I Never Thought The Day Would Come When You Could Hate Me So Dearly
TTITLE3=Something, Say Anything
TTITLE4=St Louis Blues
TTITLE5=Phantom Rules
TTITLE6=When You Fall
TTITLE7=Death By Stereo
TTITLE8=Garden Of The Dead
TTITLE9=Whisper In The Dark
TTITLE10=You're Gonna Need Somebody On Your Bond
TTITLE11=Catfish Angels
TTITLE12=St James Infirmary Blues
TTITLE13=Cuckoo Bird
TTITLE14=Columbus Stockade Blues
TTITLE15=Walkin Talkin Deadman
TTITLE16=Ol White Thang Blues
TTITLE17=Raggle Taggle Gypsy
TTITLE18=Leo O'Sullivan's Story
TTITLE19=Wake Up
EXTD=
EXTT0=
EXTT1=
EXTT2=
EXTT3=
EXTT4=
EXTT5=
EXTT6=
EXTT7=
EXTT8=
EXTT9=
EXTT10=
EXTT11=
EXTT12=
EXTT13=
EXTT14=
EXTT15=
EXTT16=
EXTT17=
EXTT18=
EXTT19=
PLAYORDER=
